<svg width="2927" height="764" xmlns="http://www.w3.org/2000/svg">

 <g>
  <title>background</title>
  <rect fill="none" id="canvas_background" height="602" width="802" y="0" x="0"/>
 </g>
 <g>
  <title>Layer 1</title>
  <path stroke="null" fill="#08c110" id="svg_1" d="m264.926822,628.760138l1.625775,27.682575q-4.972264,5.464557 -11.436208,5.464557t-11.436207,-5.464557l-231.707506,-254.648328q-4.972264,-5.464557 -4.972264,-12.56848t4.972264,-12.56848l231.707506,-254.648328q4.972264,-5.464557 11.436207,-5.464557t11.436208,5.464557l24.86132,27.322782q4.972264,5.464556 4.972264,12.56848t-4.972264,12.568479l-195.409978,214.757067l195.409978,214.757067q4.972264,5.464556 4.972264,12.568479l-4.972264,12.448549zm293.860807,-582.948237l-185.46545,705.474232q-1.988906,7.103923 -7.707009,10.655885t-11.684821,1.366139l-30.828037,-9.289746q-6.463944,-2.185823 -9.695915,-8.470063t-1.243066,-13.388163l185.46545,-705.474232q1.988906,-7.103923 7.707009,-10.655885t11.684821,-1.366139l30.828037,9.289746q6.463944,2.185823 9.695915,8.470063t1.243066,13.388163zm326.67775,355.742622l-231.707506,254.648328q-4.972264,5.464557 -11.436207,5.464557t-11.436208,-5.464557l-24.86132,-27.322782q-4.972264,-5.464556 -4.972264,-12.56848t4.972264,-12.568479l195.409978,-214.757067l-195.409978,-214.757067q-4.972264,-5.464556 -4.972264,-12.568479t4.972264,-12.56848l24.86132,-27.322782q4.972264,-5.464557 11.436208,-5.464557t11.436207,5.464557l231.707506,254.648328q4.972264,5.464557 4.972264,12.56848t-4.972264,12.56848z"/>
  <text transform="matrix(13.752506631364927,0,0,24.019052422444307,-14025.215091033759,-18902.94659487325) " font-weight="bold" stroke="null" xml:space="preserve" text-anchor="start" font-family="Georgia, Times, 'Times New Roman', serif" font-size="24" id="svg_2" y="811.179431" x="1095.398752" stroke-opacity="null" stroke-width="0" fill="#f7f7f7">anhduc720</text>
  <path id="svg_4" d="m282.152745,340.590303c0,0 62.505146,-67.505557 60.375448,-68.067872" opacity="0.5" fill-opacity="null" stroke-opacity="null" stroke-width="0" stroke="null" fill="#08c110"/>
  <path id="svg_5" d="m114.638954,160.575483" opacity="0.5" fill-opacity="null" stroke-opacity="null" stroke-width="0" stroke="null" fill="#08c110"/>
  <path id="svg_6" d="m-170.38451,175.576718l-347.158088,374.468555" opacity="0.5" fill-opacity="null" stroke-opacity="null" stroke-width="0" stroke="null" fill="#08c110"/>
 </g>
</svg>