<svg width="2927" height="764" xmlns="http://www.w3.org/2000/svg">

 <g>
  <title>background</title>
  <rect fill="none" id="canvas_background" height="766" width="2929" y="-1" x="-1"/>
 </g>
 <g>
  <title>Layer 1</title>
  <path stroke="null" fill="#08c110" id="svg_1" d="m291.413917,629.119931l-24.86132,27.322782q-4.972264,5.464556 -11.436207,5.464556t-11.436207,-5.464556l-231.707506,-254.648328q-4.972264,-5.464556 -4.972264,-12.56848t4.972264,-12.56848l231.707506,-254.648328q4.972264,-5.464556 11.436207,-5.464556t11.436207,5.464556l24.86132,27.322782q4.972264,5.464556 4.972264,12.56848t-4.972264,12.56848l-195.409978,214.757067l195.409978,214.757067q4.972264,5.464556 4.972264,12.56848t-4.972264,12.56848zm293.860807,-583.068168l-185.46545,705.474232q-1.988906,7.103923 -7.707009,10.655885t-11.684821,1.366139l-30.828037,-9.289746q-6.463943,-2.185823 -9.695915,-8.470062t-1.243066,-13.388163l185.46545,-705.474232q1.988906,-7.103923 7.707009,-10.655885t11.684821,-1.366139l30.828037,9.289746q6.463943,2.185823 9.695915,8.470062t1.243066,13.388163zm326.67775,355.742622l-231.707506,254.648328q-4.972264,5.464556 -11.436207,5.464556t-11.436207,-5.464556l-24.86132,-27.322782q-4.972264,-5.464556 -4.972264,-12.56848t4.972264,-12.56848l195.409978,-214.757067l-195.409978,-214.757067q-4.972264,-5.464556 -4.972264,-12.56848t4.972264,-12.56848l24.86132,-27.322782q4.972264,-5.464556 11.436207,-5.464556t11.436207,5.464556l231.707506,254.648328q4.972264,5.464556 4.972264,12.56848t-4.972264,12.56848z"/>
  <text font-weight="bold" stroke="null" transform="matrix(13.752506631364927,0,0,24.019052422444307,-14025.215091033759,-18902.94659487325) " xml:space="preserve" text-anchor="start" font-family="Georgia, Times, 'Times New Roman', serif" font-size="24" id="svg_2" y="809.409856" x="1095.580552" stroke-opacity="null" stroke-width="0" fill="#050505">anhduc720</text>
 </g>
</svg>